<?xml version="1.0" encoding="UTF-8"?>
<svg id="Capa_1" xmlns="http://www.w3.org/2000/svg" version="1.1" viewBox="0 0 120 42">
  <!-- Generator: Adobe Illustrator 29.0.0, SVG Export Plug-In . SVG Version: 2.1.0 Build 186)  -->
  <defs>
    <style>
      .st0 {
        fill: #fff;
      }
    </style>
  </defs>
  <path class="st0" d="M24.8,36.9c0-.5,0-1.6-.3-1.9s-1.5-.2-1.9-.2c-.5.1-1.1,0-1.6,0s-1.2.1-1.8,0c1-.7,2.4-.5,3.5-1.1s1.9-2.9,2-4.4c-.6-.3-.9-.8-1.4-1.1s-1-.3-1.6-1c-1.1-1.4-1.7-2.7-1.5-4.5s1.1-2.9,1.4-4.4.2-2.3.5-3.5.6-1.1.8-1.7c.7-1.8.5-3.4,1.3-5.2s.6-1.2.9-2.3.6-1,1-1c.9,0,.6,1.8.7,2.3s.6.8.7,1c.8,1.4.6,2,.9,3.4s1.5,2.9,1.9,4.4,0,1.9,0,2.8c.2,2.3,1.1,4.3.9,6.7s-1.8,2-2.5,2.8-.3.6-.5.8-.4.3-.6.5-.6.7-.6.9c.5,1.3.6,2.7,1.9,3.4s2.4.7,3.8.9.1,0,.2,0c0,0-.8.4-.9.4-.5,0-1.5-.1-2.1-.1-.8,0-2.4,0-3.2.3s-1.1,1-1.6,1.5,0,.1-.2,0ZM22.8,26c.1.5.7.9,1.1,1,.7.2,1.6.5,2.4.5s1.3,0,1.6-.3,0-.6,0-.9.5-.9.7-1.2c.9-1.6.2-3.1-.7-4.6s-.9-1.3-.9-1.5.3-.7.5-.7,1,.9,1.3.9c.5,0,.2-1,.2-1.3,0-1.1.5-1.7-.6-2.6s-.8-.5-1-.7-.4-2-.5-2.4c0-.9.1-1.9-.1-2.7s-.4,0-.5.3c-.2.4-.5.9-1,1s-.6-.3-.7.2,0,1.1,0,1.7-.2.5-.2.8c0,.4,0,.9,0,1.3s-1,.7-1.1,1.5,0,.9,0,1.2-.3.6-.3.9c.3,0,.7.3.8.6s.2,1,.2,1.2c0,.8-.6,1.6-1.4,1.7s-1.2-.4-.8.3.7.9.7.9c0,0,.3.1.4.2.3.2.3.6.7.8s.5,0,.9,0c.8,0,2.2.7,1.1,1.5s-1.5,0-2.5,0ZM24,33.7h1.2c.2,0,.3.6.3.8.4-.1.8-.3,1.2-.4s.6,0,.8,0l-1.7-2.9-.3,1.4c-.2-.1-.2-.5-.4-.6,0,.8-.7,1.3-1.2,1.8Z"/>
  <path class="st0" d="M40.4,4.9c.5.4.2,1.5.4,2.1s.6.8.7,1.1c.7,1.3.6,2,.9,3.4s1.3,2.8,1.8,4.2.1,2,.2,3c.2,2.3,1.2,4.4.9,6.8s-1.8,2-2.5,2.8-.3.6-.5.8-.4.3-.6.5-.6.7-.6.9.4,1.2.5,1.5c1,2.6,2.8,2.5,5.2,2.9s.1,0,.2,0c0,0-.8.4-.9.4-.5,0-1.5-.1-2.1-.1-.9,0-2.5,0-3.2.3s-1,1-1.5,1.5,0,.1-.2,0c0-.4,0-1.7-.3-1.9s-1.6-.2-1.9-.2c-.5.1-1.1,0-1.6,0s-1.2.1-1.8,0c1.2-.8,2.8-.4,3.9-1.4s1.5-2.9,1.4-4.2c-.6-.2-.9-.8-1.4-1.1s-1-.3-1.6-1c-1.1-1.4-1.6-2.6-1.5-4.4s1-2.8,1.3-4.2.2-3,.9-4.4.9-2.4,1.2-4.4,1-2.2,1.4-3.4,0-.7.4-1.2.7-.7,1.1-.4ZM36.9,26c0,0,.2.5.3.5.5.5,2.5,1,3.2,1s1.5,0,1.7-.5-.1-.5-.1-.7c0-.4.6-1.1.8-1.5.8-1.7-.2-3.4-1.1-4.8s-.9-.9-.4-1.5,1.1.6,1.6.7.2-1,.2-1.3c0-.9.4-1.6-.3-2.3s-1-.6-1.3-.9-.4-1.4-.4-1.7c0-.7,0-1.3,0-1.9s0-1.7-.3-1.8-.2.4-.3.6c-.2.5-.5,1-1.1,1s-.5-.1-.6,0c-.2.3-.1,1.6-.2,2.1s-.2.5-.2.8c0,.4,0,.8,0,1.2-.1.6-1,.7-1.1,1.5s0,.9,0,1.3-.4.8-.3.9c.3,0,.7.3.8.6s.2,1.4.1,1.7c-.1.5-.8,1.1-1.4,1.1s-1.2-.4-.8.3.3.3.4.4.2.4.3.5.3.1.5.3c.3.3.4.9.9.9s.3-.1.5-.1c.7,0,2.2.7,1.2,1.5s-1.5,0-2.5,0ZM38.1,33.7h1.2c.2,0,.4.6.3.8.4-.1.8-.3,1.2-.4s.6,0,.8,0l-1.7-2.9c0,.2-.1,1.1-.2,1.3-.2.3-.2-.4-.4-.5,0,.8-.7,1.3-1.2,1.8Z"/>
  <path class="st0" d="M12.3,4.9c.5.4.2,1.5.4,2.1s.6.8.7,1.1c.7,1.3.6,2,.9,3.4s1.3,2.8,1.8,4.2.1,1.9.2,2.8c.1,2.4,1.2,4.4.9,6.9s-1.8,2-2.5,2.8-.3.6-.5.8-.4.3-.6.5-.6.8-.6.9c0,.2.4,1.2.5,1.5,1,2.6,2.8,2.5,5.2,2.9s.1,0,.2,0c0,0-.8.4-.9.4-.5,0-1.5-.1-2.1-.1s-2.1,0-2.8.2-1.3,1.1-1.9,1.6,0,.1-.2,0c0-.5,0-1.6-.3-1.9s-1.5-.2-1.9-.2c-.5.1-1.1,0-1.6,0s-1.2.1-1.8,0c1.2-.8,2.8-.4,3.9-1.4s1.5-2.9,1.4-4.2c-.6-.2-1-.9-1.6-1.2s-.9-.2-1.4-.9c-1.1-1.4-1.6-2.6-1.5-4.4s1.1-2.9,1.4-4.4.2-2.2.5-3.3.8-1.7,1.1-2.8.3-2.4.7-3.4,1-1.9,1.3-3.2.8-1.3,1.3-.8ZM13.7,27.3c.5-.4,0-.8,0-1.3s.7-1,.9-1.4c.7-1.6-.2-3.1-.9-4.4s-.8-1.2-.8-1.4.3-.6.5-.6.9.9,1.3.9.2-1,.2-1.3c0-.9.4-1.6-.3-2.4s-1-.6-1.3-.8-.4-1.4-.4-1.8c0-.6,0-1.2,0-1.7s0-1.6-.2-1.9-.3.4-.4.6c-.2.5-.5.9-1,1s-.5-.1-.6,0c-.2.3-.1,1.6-.2,2.1s-.2.5-.2.8c0,.4,0,.8,0,1.2-.1.6-1,.7-1.1,1.5s0,.9,0,1.3-.4.8-.3.9c.3,0,.7.3.8.6s.2.9.2,1.2,0,.5,0,.7c-.2.5-.8,1-1.4,1s-1.2-.4-.8.3.3.3.4.4.2.4.3.5.3.1.4.2c.2.2.3.6.7.8s.4,0,.8,0,1.1.3,1.3.5c.8.6-.1,1.3-.8,1.4s-1.1-.3-1.8-.2c0,0,.3.5.3.6.4.3,1.9.8,2.4.9s1.9,0,2.2-.1ZM10,33.7h1.2c.2,0,.4.6.3.8.4-.1.8-.3,1.2-.4s.6,0,.8,0l-1.7-2.9c0,.2-.1,1.1-.2,1.3-.2.3-.2-.4-.4-.5,0,.8-.7,1.2-1.2,1.8Z"/>
  <polygon class="st0" points="54.2 23.1 60.1 29.8 60.1 23.1 62.9 23.1 62.9 34.3 60.6 34.3 54.4 27.3 54.4 34.3 51.6 34.3 51.6 23.1 54.2 23.1"/>
  <path class="st0" d="M77.7,32.4c-3.7,4.1-11.8,1.8-11.3-4.3s7.3-6.7,10.8-3.6,2.7,5.5.5,7.9ZM72.1,25.4c-4,.5-3.8,7.1,1.2,6.6s3.5-2.5,2.8-4.6-2.3-2.2-3.9-2Z"/>
  <path class="st0" d="M88.2,23.1c3.2.4,4.2,4.6,1.2,5.9.6.3.9.9,1.3,1.5.4,1.1,1.3,2.4,1.7,3.6s0,.1,0,.2h-3c-.6-1-.9-2.3-1.6-3.3s-.8-1.2-1.3-1.2h-1v4.5h-2.8v-11.2h5.7ZM85.4,27.6h2s.4-.2.5-.2c.6-.4.7-1.6,0-2s-.7-.2-.9-.2h-1.5v2.4Z"/>
  <path class="st0" d="M105.8,10.5c2.4,2.3,2.2,6.1-.5,8.1-3.8,2.8-10.4.6-10.1-4.7s7.2-6.7,10.6-3.5ZM100.7,11.2c-1.4.2-2.5,1.3-2.6,2.7-.4,4.9,6.9,4.8,6.6.3s-1.8-3.3-4-3Z"/>
  <path class="st0" d="M72.8,19.7v-10.7c3.1.2,7.1-.8,9.4,1.8s1.7,4.7.4,6.6c-2.2,3.1-6.6,2.1-9.8,2.2ZM75.6,17.7c1.3,0,2.7.1,3.8-.6,1.8-1.2,1.7-4.5-.1-5.6s-2.4-.4-3.7-.5v6.7Z"/>
  <path class="st0" d="M90.6,9c2.5.2,4.1,3,2.3,5l-.9.7c.5.3.9.8,1.1,1.4.5.9,1,2,1.4,2.9s.2.4.2.7h-2.9c-.6-1.1-1-2.4-1.7-3.5s-.7-.9-1.1-.9h-1v4.3h-2.7v-10.7h5.2ZM88.1,13.4h1.6s.4,0,.4,0c.6-.2.8-.7.8-1.4s-.5-.8-.9-.8-1.7,0-1.8,0,0,0,0,0v2.3Z"/>
  <path class="st0" d="M115.5,25.2h-5.3v2.3h5s0,0,0,0v2h-5.1v2.6h5.4s0,0,0,0v1.9s0,0,0,0h-8.2v-11.2h8.1s0,0,0,0v2Z"/>
  <path class="st0" d="M70.8,9v2c-.4.2-5.1-.2-5.1,0v2s0,0,0,0h4.8v2h-4.8s0,0,0,0v2.3s0,0,0,0h5.1v2h-7.9v-10.7h7.8Z"/>
  <path class="st0" d="M60.8,12.1s0,.2,0,.2c-1.7-1-4.1-1.6-5.9-.5s-1.8,4.9.9,5.7,3.5-.2,5.2-1v2.4c-2.5,1.5-6.5,1.6-8.7-.4s-2.3-5.8,0-7.8,4.8-2,7.2-1.3,1.4.5,1.4.7c0,.6,0,1.6,0,2.2Z"/>
  <path class="st0" d="M116.6,9.7v2.1c-1.3-.4-2.7-1.2-4.1-.8s-1.1.5-.7,1.1,2.9,1.3,3.6,1.7c2.6,1.5,2.1,5-.8,5.8s-4,.1-5.6-.9v-2.2s0,0,.1,0c.2,0,.7.5,1,.6.8.4,1.9.8,2.8.7,1.5-.1,1.8-1.2.5-1.9s-4.3-1.1-4.6-3.4c-.5-4.2,5.1-4.2,7.7-2.8Z"/>
  <path class="st0" d="M104.2,23.1v2.1h-4v9.1h-2.8s0,0,0,0v-9h-4v-2.1h10.9Z"/>
</svg>